<?xml version="1.0" encoding="UTF-8"?>
<svg id="Layer_1" xmlns="http://www.w3.org/2000/svg" xmlns:xlink="http://www.w3.org/1999/xlink" version="1.1" viewBox="0 0 403.2 115">
  <!-- Generator: Adobe Illustrator 29.4.0, SVG Export Plug-In . SVG Version: 2.1.0 Build 152)  -->
  <defs>
    <style>
      .st0, .st1 {
        fill: none;
      }

      .st2 {
        fill: #8a1721;
      }

      .st1 {
        clip-path: url(#clippath);
      }

      .st3 {
        clip-path: url(#clippath-1);
      }

      .st4 {
        fill: #e72a4e;
      }
    </style>
    <clipPath id="clippath">
      <polygon class="st0" points="565 235 566 235 565 236 565 235"/>
    </clipPath>
    <clipPath id="clippath-1">
      <polygon class="st1" points="563 233 562 233 563 232 563 233"/>
    </clipPath>
  </defs>
  <g>
    <polygon id="Capa_1-2" class="st4" points="99.3 57.5 64.8 115 0 0 65.6 0 99.3 57.5"/>
    <polygon id="Capa_1-21" data-name="Capa_1-2" class="st4" points="32.4 57.5 0 115 64.8 115 32.4 57.5"/>
    <polygon id="Capa_1-22" data-name="Capa_1-2" class="st2" points="32.4 57.5 22.5 75 64.8 115 32.4 57.5"/>
  </g>
  <g class="st3">
    <path class="st0" d="M753.9,544.6"/>
  </g>
  <path d="M122.2,76.6h0c-3.6,0-6.7-.6-9.3-1.9-2.5-1.3-4.5-3.3-5.8-6.1-1.3-2.7-2-6.2-2-10.5h0c0-6.2,1.5-10.9,4.6-13.9,3-3,7.3-4.6,12.7-4.6h0c3,0,5.7.5,8,1.5,2.4,1,4.2,2.5,5.6,4.5,1.4,2,2,4.5,2,7.6h-5.9c0-1.9-.4-3.5-1.2-4.8-.8-1.3-1.9-2.2-3.4-2.9-1.5-.7-3.2-1-5.1-1h0c-2.4,0-4.5.5-6.2,1.4-1.7,1-2.9,2.4-3.8,4.3-.8,1.9-1.3,4.3-1.3,7.3h0v1.1c0,2.9.4,5.4,1.3,7.3.9,1.9,2.1,3.3,3.8,4.2,1.7.9,3.7,1.4,6.2,1.4h0c2,0,3.8-.3,5.2-1,1.5-.6,2.6-1.6,3.5-2.9.8-1.3,1.2-2.9,1.2-4.8h5.7c0,3.1-.7,5.6-2,7.6-1.4,2-3.2,3.5-5.6,4.5-2.4,1-5.1,1.5-8.1,1.5ZM159.9,76.6h0c-3.6,0-6.7-.6-9.3-1.9-2.5-1.3-4.5-3.3-5.8-6.1-1.3-2.7-2-6.2-2-10.5h0c0-6.2,1.5-10.9,4.5-13.9,3-3,7.3-4.6,12.7-4.6h0c3,0,5.7.5,8,1.5,2.4,1,4.2,2.5,5.6,4.5,1.4,2,2.1,4.5,2.1,7.6h-5.9c0-1.9-.4-3.5-1.2-4.8-.8-1.3-1.9-2.2-3.4-2.9-1.5-.7-3.2-1-5.1-1h0c-2.4,0-4.5.5-6.2,1.4-1.7,1-2.9,2.4-3.8,4.3-.8,1.9-1.3,4.3-1.3,7.3h0v1.1c0,2.9.4,5.4,1.3,7.3.9,1.9,2.1,3.3,3.8,4.2,1.7,.9,3.7,1.4,6.2,1.4h0c2,0,3.8-.3,5.2-1,1.5-.6,2.6-1.6,3.5-2.9.8-1.3,1.2-2.9,1.2-4.8h5.7c0,3.1-.7,5.6-2.1,7.6-1.4,2-3.2,3.5-5.6,4.5-2.4,1-5.1,1.5-8.1,1.5ZM187.9,76h-5.8v-35.7h17.8c2.5,0,4.6,.5,6.3,1.4,1.7,.9,2.9,2.2,3.8,3.9.8,1.6,1.3,3.6,1.3,5.9h0c0,2.3-.5,4.2-1.4,6-.9,1.7-2.2,3-3.9,4-1.7,.9-3.8,1.4-6.3,1.4h-11.8v13.2ZM187.9,45.3v12.5h11.5c1.8,0,3.3-.6,4.3-1.7,1.1-1.1,1.6-2.7,1.6-4.6h0c0-1.3-.2-2.4-.7-3.4-.5-.9-1.1-1.6-2-2.1-.9-.5-2-.7-3.3-.7h-11.5ZM241.1,76.6h0c-5.6,0-10-1.5-13-4.5-3-3-4.6-7.6-4.6-14h0c0-4.2,.7-7.6,2.1-10.3,1.4-2.7,3.5-4.8,6.2-6.1,2.7-1.4,6-2,9.9-2h0c2.3,0,4.5,.3,6.5,.8,2,.5,3.7,1.3,5.2,2.4,1.5,1.1,2.7,2.4,3.5,4,.8,1.6,1.2,3.5,1.2,5.7h-5.9c0-1.4-.3-2.5-.8-3.5-.5-1-1.3-1.8-2.2-2.5-1-.7-2.1-1.1-3.3-1.4s-2.6-.4-4-.4h0c-2,0-3.7,.3-5.3,.8-1.5,.5-2.8,1.3-3.9,2.4-1,1.1-1.8,2.4-2.3,4.1-.5,1.6-.8,3.5-.8,5.8h0v1.1c0,3.1,.4,5.5,1.3,7.4,.9,1.9,2.2,3.3,4,4.2,1.7,.9,3.9,1.3,6.4,1.3h0c2.4,0,4.4-.3,6-1,1.6-.7,2.9-1.7,3.7-3.1,.9-1.4,1.3-3.1,1.3-5.1h0v-.5h-12v-4.8h17.8v18.9h-4.2l-.6-4.3c-1,1.1-2.1,2.1-3.3,2.8-1.3,.7-2.6,1.2-4.1,1.6-1.5,.3-3.1,.5-4.9,.5ZM276.9,76.6h0c-2.8,0-5.2-.5-7.1-1.5-1.9-1-3.3-2.6-4.3-4.7-1-2.1-1.5-4.8-1.5-8.1h0c0-3.3,.5-6,1.5-8.1,1-2.1,2.4-3.7,4.3-4.7,1.9-1,4.3-1.5,7.1-1.5h0c2.6,0,4.8,.5,6.5,1.5,1.7,1,3.1,2.5,4,4.5,.9,2,1.3,4.5,1.3,7.6h0v2.1h-19.2c0,1.9,.4,3.6,.9,4.9,.5,1.3,1.3,2.3,2.4,2.9s2.4,.9,4,.9h0c1,0,1.9-.1,2.7-.4,.8-.3,1.5-.6,2-1.1s1-1.1,1.3-1.8c.3-.7,.5-1.5,.5-2.4h5.3c0,1.6-.3,3.1-.8,4.3-.6,1.2-1.4,2.3-2.4,3.1-1.1,.9-2.3,1.5-3.8,1.9-1.5,.5-3.1,.7-4.8,.7ZM269.8,59.7h13.4c0-1.4-.1-2.5-.4-3.4-.3-.9-.7-1.7-1.3-2.3-.6-.6-1.2-1-2-1.3-.8-.3-1.6-.4-2.6-.4h0c-1.5,0-2.7,.3-3.7,.8s-1.8,1.3-2.4,2.4c-.6,1.1-.9,2.5-1,4.1ZM304.5,76.6h0c-1.9,0-3.6-.2-5.1-.6-1.5-.4-2.7-1-3.6-1.7-1-.7-1.7-1.6-2.2-2.6-.5-1-.8-2.2-.8-3.4h0c0-.2,0-.3,0-.5,0-.1,0-.3,0-.4h5.4v.6h0c0,1.1,.3,1.9,.9,2.6,.6,.6,1.4,1.1,2.4,1.3,1,.3,2.1,.4,3.2,.4h0c1,0,2-.1,2.9-.4,.9-.3,1.6-.6,2.2-1.2s.9-1.2,.9-2h0c0-1-.4-1.8-1.1-2.4-.7-.6-1.7-1-2.9-1.3-1.2-.3-2.4-.7-3.7-1.1h0c-1.1-.3-2.3-.6-3.4-1-1.1-.4-2.1-.8-3.1-1.4-.9-.6-1.6-1.3-2.2-2.2-.6-.9-.8-2-.8-3.4h0c0-1.3,.3-2.4,.8-3.4,.6-1,1.3-1.8,2.3-2.4,1-.7,2.2-1.2,3.5-1.5s2.9-.5,4.5-.5h0c1.7,0,3.2,.2,4.5,.6,1.3,.4,2.4,.9,3.4,1.5,.9,.7,1.6,1.5,2.1,2.4,.5,.9,.7,1.9,.7,2.9h0c0,.2,0,.4,0,.6,0,.2,0,.4,0,.4h-5.3v-.5c0-.7-.2-1.3-.6-1.9-.4-.6-1-1-1.8-1.4-.8-.3-1.9-.5-3.2-.5h0c-.9,0-1.7,0-2.4,.2-.7,.2-1.3,.4-1.7,.6-.5,.3-.8,.6-1,1-.2,.4-.3,.8-.3,1.3h0c0,.8,.3,1.4,.9,1.8,.6,.4,1.3,.8,2.3,1.1,.9,.3,1.9,.6,3,1h0c1.3,.3,2.5,.7,3.8,1.1,1.3,.4,2.5,.8,3.6,1.4,1.1,.6,2,1.3,2.6,2.3,.7,1,1,2.3,1,3.9h0c0,1.5-.3,2.8-.9,3.9-.6,1.1-1.4,2-2.5,2.7-1.1,.7-2.3,1.2-3.7,1.5-1.4,.3-3,.5-4.6,.5ZM328.4,76.6h0c-1.6,0-2.8-.3-3.7-.9-.9-.6-1.5-1.4-1.9-2.3-.4-1-.5-2-.5-3h0v-17.2h-3.4v-4.5h3.5l1-7.6h4.3v7.6h4.9v4.5h-4.9v16.6c0,.8,.2,1.4,.5,1.8,.3,.4,.9,.6,1.7,.6h2.7v3.6c-.3,.1-.8,.3-1.3,.4-.5,.1-1,.2-1.5,.3-.5,0-1,.1-1.5,.1ZM342.9,43.9h-5.4v-5.5h5.4v5.5ZM342.9,76h-5.4v-27.4h5.4v27.4ZM361.5,76.6h0c-2.8,0-5.2-.5-7.2-1.5-2-1-3.4-2.6-4.4-4.7-1-2.1-1.5-4.8-1.5-8.1h0c0-3.3,.5-6,1.5-8.1,1-2.1,2.5-3.7,4.4-4.7,2-1,4.4-1.5,7.2-1.5h0c2.9,0,5.3,.5,7.3,1.5,1.9,1,3.4,2.6,4.4,4.7,1,2.1,1.5,4.8,1.5,8.1h0c0,3.3-.5,5.9-1.5,8.1-1,2.1-2.5,3.7-4.4,4.7-1.9,1-4.4,1.5-7.3,1.5ZM361.5,72.1h0c1.7,0,3.2-.3,4.3-1,1.1-.7,1.9-1.7,2.5-3.1,.5-1.4,.8-3.1,.8-5.2h0v-.9c0-2.1-.3-3.9-.8-5.2-.5-1.4-1.4-2.4-2.5-3.1-1.1-.7-2.5-1-4.3-1h0c-1.7,0-3.1,.3-4.2,1-1.1,.7-1.9,1.7-2.5,3.1-.5,1.4-.8,3.1-.8,5.2h0v.9c0,2.1,.3,3.9,.8,5.2,.5,1.4,1.4,2.4,2.5,3.1,1.1,.7,2.5,1,4.2,1ZM363.1,45.3h-4.6l4.4-6.9h5.9v.2c0,0-5.7,6.7-5.7,6.7ZM385.6,76h-5.4v-27.4h4.5l.5,3.9h.4c.7-1,1.4-1.8,2.3-2.5,.9-.7,1.9-1.2,3-1.5,1.1-.3,2.3-.5,3.6-.5h0c1.7,0,3.3,.3,4.6,.9,1.3,.6,2.4,1.6,3.1,2.9,.7,1.4,1.1,3.2,1.1,5.5h0v18.7h-5.4v-17.8c0-1-.1-1.9-.4-2.6s-.6-1.2-1.1-1.7c-.5-.4-1.1-.7-1.7-.9-.7-.2-1.4-.3-2.2-.3h0c-1.2,0-2.4,.3-3.4,.9-1,.6-1.8,1.4-2.5,2.5-.6,1.1-.9,2.3-.9,3.8h0v16Z"/>
</svg>
